# xmcd
#
# Track frame offsets: 
#        150
#        12750
#        27112
#        39900
#        52575
#        65700
#        79387
#        90525
#        102525
#        115275
#        130162
#        142987
#
# Disc length: 2078 seconds
#
# Revision: 0
# Processed by: cddbd v1.5.2PL0 Copyright (c) Steve Scherf et al.
# Submitted via: ExactAudioCopy v0.99pb3
#
DISCID=94081c0c
DTITLE=Adam Dewey and Crazy Creek - Adam Dewey and Crazy Creek
DYEAR=1999
DGENRE=Bluegrass
TTITLE0=Old Thaddeus
TTITLE1=White Line Soul
TTITLE2=Come Back Darling
TTITLE3=Hope You'll Come Around
TTITLE4=Sittin alone In The Moonlight
TTITLE5=Salt Creek
TTITLE6=When My Blue Moon Turns Gold Again
TTITLE7=The Gospel Way
TTITLE8=Still Write Your Name in The Sand
TTITLE9=Shenandoah Breakdown
TTITLE10=Sophronie
TTITLE11=Take This Ring From My Finger
EXTD=
EXTT0=
EXTT1=
EXTT2=
EXTT3=
EXTT4=
EXTT5=
EXTT6=
EXTT7=
EXTT8=
EXTT9=
EXTT10=
EXTT11=
PLAYORDER=
